<svg width="208" height="68" viewBox="0 0 208 68" fill="none" xmlns="http://www.w3.org/2000/svg">
<g filter="url(#filter0_d_25_38)">
<rect x="4" width="200" height="60" rx="30" fill="#F28B64"/>
</g>
<path d="M27.3716 25.758L28.1276 24.048C28.6676 24.42 29.2556 24.708 29.8916 24.912C30.5396 25.104 31.1816 25.206 31.8176 25.218C32.4536 25.23 33.0296 25.158 33.5456 25.002C34.0736 24.846 34.4936 24.612 34.8056 24.3C35.1176 23.988 35.2736 23.598 35.2736 23.13C35.2736 22.566 35.0396 22.146 34.5716 21.87C34.1156 21.582 33.4916 21.438 32.6996 21.438H29.7656V19.602H32.5196C33.2276 19.602 33.7736 19.458 34.1576 19.17C34.5536 18.882 34.7516 18.492 34.7516 18C34.7516 17.592 34.6196 17.256 34.3556 16.992C34.1036 16.728 33.7556 16.53 33.3116 16.398C32.8796 16.266 32.3876 16.206 31.8356 16.218C31.2956 16.218 30.7316 16.302 30.1436 16.47C29.5556 16.626 28.9976 16.86 28.4696 17.172L27.7316 15.282C28.5236 14.862 29.3516 14.568 30.2156 14.4C31.0916 14.232 31.9376 14.184 32.7536 14.256C33.5696 14.328 34.3016 14.514 34.9496 14.814C35.6096 15.114 36.1376 15.51 36.5336 16.002C36.9296 16.482 37.1276 17.052 37.1276 17.712C37.1276 18.312 36.9656 18.846 36.6416 19.314C36.3296 19.77 35.8976 20.124 35.3456 20.376C34.7936 20.628 34.1516 20.754 33.4196 20.754L33.5096 20.178C34.3376 20.178 35.0576 20.322 35.6696 20.61C36.2936 20.886 36.7736 21.27 37.1096 21.762C37.4576 22.254 37.6316 22.824 37.6316 23.472C37.6316 24.084 37.4756 24.63 37.1636 25.11C36.8516 25.578 36.4256 25.974 35.8856 26.298C35.3456 26.61 34.7276 26.844 34.0316 27C33.3356 27.144 32.6036 27.198 31.8356 27.162C31.0676 27.126 30.2996 26.994 29.5316 26.766C28.7756 26.538 28.0556 26.202 27.3716 25.758ZM45.8831 27V25.056L45.7571 24.642V21.24C45.7571 20.58 45.5591 20.07 45.1631 19.71C44.7671 19.338 44.1671 19.152 43.3631 19.152C42.8231 19.152 42.2891 19.236 41.7611 19.404C41.2451 19.572 40.8071 19.806 40.4471 20.106L39.5651 18.468C40.0811 18.072 40.6931 17.778 41.4011 17.586C42.1211 17.382 42.8651 17.28 43.6331 17.28C45.0251 17.28 46.0991 17.616 46.8551 18.288C47.6231 18.948 48.0071 19.974 48.0071 21.366V27H45.8831ZM42.8591 27.126C42.1391 27.126 41.5091 27.006 40.9691 26.766C40.4291 26.514 40.0091 26.172 39.7091 25.74C39.4211 25.296 39.2771 24.798 39.2771 24.246C39.2771 23.706 39.4031 23.22 39.6551 22.788C39.9191 22.356 40.3451 22.014 40.9331 21.762C41.5211 21.51 42.3011 21.384 43.2731 21.384H46.0631V22.878H43.4351C42.6671 22.878 42.1511 23.004 41.8871 23.256C41.6231 23.496 41.4911 23.796 41.4911 24.156C41.4911 24.564 41.6531 24.888 41.9771 25.128C42.3011 25.368 42.7511 25.488 43.3271 25.488C43.8791 25.488 44.3711 25.362 44.8031 25.11C45.2471 24.858 45.5651 24.486 45.7571 23.994L46.1351 25.344C45.9191 25.908 45.5291 26.346 44.9651 26.658C44.4131 26.97 43.7111 27.126 42.8591 27.126ZM55.3813 27.18C54.5893 27.18 53.8813 27.06 53.2573 26.82C52.6333 26.58 52.0933 26.214 51.6373 25.722C51.1933 25.218 50.8513 24.582 50.6113 23.814C50.3713 23.046 50.2513 22.134 50.2513 21.078C50.2513 20.31 50.3173 19.608 50.4493 18.972C50.5813 18.336 50.7793 17.766 51.0433 17.262C51.3073 16.746 51.6373 16.29 52.0333 15.894C52.4413 15.498 52.9153 15.168 53.4553 14.904C53.9953 14.64 54.6073 14.436 55.2913 14.292L59.7553 13.338L60.0793 15.354L56.0293 16.182C55.8013 16.23 55.5253 16.302 55.2013 16.398C54.8893 16.482 54.5653 16.614 54.2293 16.794C53.9053 16.962 53.5993 17.208 53.3113 17.532C53.0353 17.844 52.8073 18.252 52.6273 18.756C52.4593 19.248 52.3753 19.866 52.3753 20.61C52.3753 20.838 52.3813 21.012 52.3933 21.132C52.4173 21.24 52.4353 21.36 52.4473 21.492C52.4713 21.612 52.4833 21.792 52.4833 22.032L51.6373 21.15C51.8773 20.538 52.2073 20.016 52.6273 19.584C53.0593 19.14 53.5573 18.804 54.1213 18.576C54.6973 18.336 55.3213 18.216 55.9933 18.216C56.8933 18.216 57.6913 18.402 58.3873 18.774C59.0833 19.146 59.6293 19.668 60.0253 20.34C60.4213 21.012 60.6193 21.774 60.6193 22.626C60.6193 23.514 60.4033 24.3 59.9713 24.984C59.5393 25.668 58.9273 26.208 58.1353 26.604C57.3553 26.988 56.4373 27.18 55.3813 27.18ZM55.5613 25.362C56.1013 25.362 56.5753 25.248 56.9833 25.02C57.4033 24.78 57.7273 24.456 57.9553 24.048C58.1953 23.64 58.3153 23.184 58.3153 22.68C58.3153 22.176 58.1953 21.738 57.9553 21.366C57.7273 20.982 57.4033 20.676 56.9833 20.448C56.5753 20.22 56.0893 20.106 55.5253 20.106C54.9853 20.106 54.4993 20.214 54.0673 20.43C53.6473 20.646 53.3173 20.946 53.0773 21.33C52.8493 21.702 52.7353 22.134 52.7353 22.626C52.7353 23.13 52.8553 23.592 53.0953 24.012C53.3353 24.432 53.6653 24.762 54.0853 25.002C54.5173 25.242 55.0093 25.362 55.5613 25.362ZM68.1252 27.126C67.3452 27.126 66.6312 26.946 65.9832 26.586C65.3472 26.226 64.8372 25.686 64.4532 24.966C64.0812 24.234 63.8952 23.31 63.8952 22.194C63.8952 21.066 64.0752 20.142 64.4352 19.422C64.8072 18.702 65.3112 18.168 65.9472 17.82C66.5832 17.46 67.3092 17.28 68.1252 17.28C69.0732 17.28 69.9072 17.484 70.6272 17.892C71.3592 18.3 71.9352 18.87 72.3552 19.602C72.7872 20.334 73.0032 21.198 73.0032 22.194C73.0032 23.19 72.7872 24.06 72.3552 24.804C71.9352 25.536 71.3592 26.106 70.6272 26.514C69.9072 26.922 69.0732 27.126 68.1252 27.126ZM62.7972 30.492V17.388H64.9392V19.656L64.8672 22.212L65.0472 24.768V30.492H62.7972ZM67.8732 25.2C68.4132 25.2 68.8932 25.08 69.3132 24.84C69.7452 24.6 70.0872 24.252 70.3392 23.796C70.5912 23.34 70.7172 22.806 70.7172 22.194C70.7172 21.57 70.5912 21.036 70.3392 20.592C70.0872 20.136 69.7452 19.788 69.3132 19.548C68.8932 19.308 68.4132 19.188 67.8732 19.188C67.3332 19.188 66.8472 19.308 66.4152 19.548C65.9832 19.788 65.6412 20.136 65.3892 20.592C65.1372 21.036 65.0112 21.57 65.0112 22.194C65.0112 22.806 65.1372 23.34 65.3892 23.796C65.6412 24.252 65.9832 24.6 66.4152 24.84C66.8472 25.08 67.3332 25.2 67.8732 25.2ZM79.5265 27.126C78.5425 27.126 77.6665 26.916 76.8985 26.496C76.1305 26.064 75.5245 25.476 75.0805 24.732C74.6365 23.988 74.4145 23.142 74.4145 22.194C74.4145 21.234 74.6365 20.388 75.0805 19.656C75.5245 18.912 76.1305 18.33 76.8985 17.91C77.6665 17.49 78.5425 17.28 79.5265 17.28C80.5225 17.28 81.4045 17.49 82.1725 17.91C82.9525 18.33 83.5585 18.906 83.9905 19.638C84.4345 20.37 84.6565 21.222 84.6565 22.194C84.6565 23.142 84.4345 23.988 83.9905 24.732C83.5585 25.476 82.9525 26.064 82.1725 26.496C81.4045 26.916 80.5225 27.126 79.5265 27.126ZM79.5265 25.2C80.0785 25.2 80.5705 25.08 81.0025 24.84C81.4345 24.6 81.7705 24.252 82.0105 23.796C82.2625 23.34 82.3885 22.806 82.3885 22.194C82.3885 21.57 82.2625 21.036 82.0105 20.592C81.7705 20.136 81.4345 19.788 81.0025 19.548C80.5705 19.308 80.0845 19.188 79.5445 19.188C78.9925 19.188 78.5005 19.308 78.0685 19.548C77.6485 19.788 77.3125 20.136 77.0605 20.592C76.8085 21.036 76.6825 21.57 76.6825 22.194C76.6825 22.806 76.8085 23.34 77.0605 23.796C77.3125 24.252 77.6485 24.6 78.0685 24.84C78.5005 25.08 78.9865 25.2 79.5265 25.2ZM86.8792 27V17.388H89.1292V21.294H93.9712V17.388H96.2212V27H93.9712V23.202H89.1292V27H86.8792ZM99.2366 27V17.388H101.487V23.724L106.797 17.388H108.849V27H106.599V20.664L101.307 27H99.2366ZM117.203 27.126C116.423 27.126 115.709 26.946 115.061 26.586C114.425 26.226 113.915 25.686 113.531 24.966C113.159 24.234 112.973 23.31 112.973 22.194C112.973 21.066 113.153 20.142 113.513 19.422C113.885 18.702 114.389 18.168 115.025 17.82C115.661 17.46 116.387 17.28 117.203 17.28C118.151 17.28 118.985 17.484 119.705 17.892C120.437 18.3 121.013 18.87 121.433 19.602C121.865 20.334 122.081 21.198 122.081 22.194C122.081 23.19 121.865 24.06 121.433 24.804C121.013 25.536 120.437 26.106 119.705 26.514C118.985 26.922 118.151 27.126 117.203 27.126ZM111.875 30.492V17.388H114.017V19.656L113.945 22.212L114.125 24.768V30.492H111.875ZM116.951 25.2C117.491 25.2 117.971 25.08 118.391 24.84C118.823 24.6 119.165 24.252 119.417 23.796C119.669 23.34 119.795 22.806 119.795 22.194C119.795 21.57 119.669 21.036 119.417 20.592C119.165 20.136 118.823 19.788 118.391 19.548C117.971 19.308 117.491 19.188 116.951 19.188C116.411 19.188 115.925 19.308 115.493 19.548C115.061 19.788 114.719 20.136 114.467 20.592C114.215 21.036 114.089 21.57 114.089 22.194C114.089 22.806 114.215 23.34 114.467 23.796C114.719 24.252 115.061 24.6 115.493 24.84C115.925 25.08 116.411 25.2 116.951 25.2ZM128.605 27.126C127.621 27.126 126.745 26.916 125.977 26.496C125.209 26.064 124.603 25.476 124.159 24.732C123.715 23.988 123.493 23.142 123.493 22.194C123.493 21.234 123.715 20.388 124.159 19.656C124.603 18.912 125.209 18.33 125.977 17.91C126.745 17.49 127.621 17.28 128.605 17.28C129.601 17.28 130.483 17.49 131.251 17.91C132.031 18.33 132.637 18.906 133.069 19.638C133.513 20.37 133.735 21.222 133.735 22.194C133.735 23.142 133.513 23.988 133.069 24.732C132.637 25.476 132.031 26.064 131.251 26.496C130.483 26.916 129.601 27.126 128.605 27.126ZM128.605 25.2C129.157 25.2 129.649 25.08 130.081 24.84C130.513 24.6 130.849 24.252 131.089 23.796C131.341 23.34 131.467 22.806 131.467 22.194C131.467 21.57 131.341 21.036 131.089 20.592C130.849 20.136 130.513 19.788 130.081 19.548C129.649 19.308 129.163 19.188 128.623 19.188C128.071 19.188 127.579 19.308 127.147 19.548C126.727 19.788 126.391 20.136 126.139 20.592C125.887 21.036 125.761 21.57 125.761 22.194C125.761 22.806 125.887 23.34 126.139 23.796C126.391 24.252 126.727 24.6 127.147 24.84C127.579 25.08 128.065 25.2 128.605 25.2ZM135.957 27V17.388H140.655C141.819 17.388 142.731 17.604 143.391 18.036C144.063 18.468 144.399 19.08 144.399 19.872C144.399 20.652 144.087 21.264 143.463 21.708C142.839 22.14 142.011 22.356 140.979 22.356L141.249 21.798C142.413 21.798 143.277 22.014 143.841 22.446C144.417 22.866 144.705 23.484 144.705 24.3C144.705 25.152 144.387 25.818 143.751 26.298C143.115 26.766 142.149 27 140.853 27H135.957ZM138.099 25.362H140.673C141.285 25.362 141.747 25.266 142.059 25.074C142.371 24.87 142.527 24.564 142.527 24.156C142.527 23.724 142.383 23.406 142.095 23.202C141.807 22.998 141.357 22.896 140.745 22.896H138.099V25.362ZM138.099 21.402H140.457C141.033 21.402 141.465 21.3 141.753 21.096C142.053 20.88 142.203 20.58 142.203 20.196C142.203 19.8 142.053 19.506 141.753 19.314C141.465 19.122 141.033 19.026 140.457 19.026H138.099V21.402ZM152.934 27V25.056L152.808 24.642V21.24C152.808 20.58 152.61 20.07 152.214 19.71C151.818 19.338 151.218 19.152 150.414 19.152C149.874 19.152 149.34 19.236 148.812 19.404C148.296 19.572 147.858 19.806 147.498 20.106L146.616 18.468C147.132 18.072 147.744 17.778 148.452 17.586C149.172 17.382 149.916 17.28 150.684 17.28C152.076 17.28 153.15 17.616 153.906 18.288C154.674 18.948 155.058 19.974 155.058 21.366V27H152.934ZM149.91 27.126C149.19 27.126 148.56 27.006 148.02 26.766C147.48 26.514 147.06 26.172 146.76 25.74C146.472 25.296 146.328 24.798 146.328 24.246C146.328 23.706 146.454 23.22 146.706 22.788C146.97 22.356 147.396 22.014 147.984 21.762C148.572 21.51 149.352 21.384 150.324 21.384H153.114V22.878H150.486C149.718 22.878 149.202 23.004 148.938 23.256C148.674 23.496 148.542 23.796 148.542 24.156C148.542 24.564 148.704 24.888 149.028 25.128C149.352 25.368 149.802 25.488 150.378 25.488C150.93 25.488 151.422 25.362 151.854 25.11C152.298 24.858 152.616 24.486 152.808 23.994L153.186 25.344C152.97 25.908 152.58 26.346 152.016 26.658C151.464 26.97 150.762 27.126 149.91 27.126ZM159.84 27V18.756L160.362 19.296H156.456V17.388H165.456V19.296H161.568L162.09 18.756V27H159.84ZM171.912 20.556C173.148 20.556 174.09 20.832 174.738 21.384C175.386 21.936 175.71 22.716 175.71 23.724C175.71 24.768 175.35 25.584 174.63 26.172C173.91 26.748 172.896 27.03 171.588 27.018L167.088 27V17.388H169.338V20.538L171.912 20.556ZM171.39 25.362C172.05 25.374 172.554 25.236 172.902 24.948C173.25 24.66 173.424 24.24 173.424 23.688C173.424 23.136 173.25 22.74 172.902 22.5C172.566 22.248 172.062 22.116 171.39 22.104L169.338 22.086V25.344L171.39 25.362ZM83.4541 49.618C82.9861 49.618 82.5181 49.54 82.0501 49.384C81.5821 49.228 81.1921 49.012 80.8801 48.736L81.7801 47.08C82.0081 47.284 82.2661 47.446 82.5541 47.566C82.8421 47.686 83.1361 47.746 83.4361 47.746C83.8441 47.746 84.1741 47.644 84.4261 47.44C84.6781 47.236 84.9121 46.894 85.1281 46.414L85.6861 45.154L85.8661 44.884L89.5021 36.388H91.6621L87.1621 46.774C86.8621 47.494 86.5261 48.064 86.1541 48.484C85.7941 48.904 85.3861 49.198 84.9301 49.366C84.4861 49.534 83.9941 49.618 83.4541 49.618ZM85.4341 46.342L81.0961 36.388H83.4361L86.9641 44.686L85.4341 46.342ZM98.5529 46.126C97.7729 46.126 97.0589 45.946 96.4109 45.586C95.7749 45.226 95.2649 44.686 94.8809 43.966C94.5089 43.234 94.3229 42.31 94.3229 41.194C94.3229 40.066 94.5029 39.142 94.8629 38.422C95.2349 37.702 95.7389 37.168 96.3749 36.82C97.0109 36.46 97.7369 36.28 98.5529 36.28C99.5009 36.28 100.335 36.484 101.055 36.892C101.787 37.3 102.363 37.87 102.783 38.602C103.215 39.334 103.431 40.198 103.431 41.194C103.431 42.19 103.215 43.06 102.783 43.804C102.363 44.536 101.787 45.106 101.055 45.514C100.335 45.922 99.5009 46.126 98.5529 46.126ZM93.2249 49.492V36.388H95.3669V38.656L95.2949 41.212L95.4749 43.768V49.492H93.2249ZM98.3009 44.2C98.8409 44.2 99.3209 44.08 99.7409 43.84C100.173 43.6 100.515 43.252 100.767 42.796C101.019 42.34 101.145 41.806 101.145 41.194C101.145 40.57 101.019 40.036 100.767 39.592C100.515 39.136 100.173 38.788 99.7409 38.548C99.3209 38.308 98.8409 38.188 98.3009 38.188C97.7609 38.188 97.2749 38.308 96.8429 38.548C96.4109 38.788 96.0689 39.136 95.8169 39.592C95.5649 40.036 95.4389 40.57 95.4389 41.194C95.4389 41.806 95.5649 42.34 95.8169 42.796C96.0689 43.252 96.4109 43.6 96.8429 43.84C97.2749 44.08 97.7609 44.2 98.3009 44.2ZM109.954 46.126C108.97 46.126 108.094 45.916 107.326 45.496C106.558 45.064 105.952 44.476 105.508 43.732C105.064 42.988 104.842 42.142 104.842 41.194C104.842 40.234 105.064 39.388 105.508 38.656C105.952 37.912 106.558 37.33 107.326 36.91C108.094 36.49 108.97 36.28 109.954 36.28C110.95 36.28 111.832 36.49 112.6 36.91C113.38 37.33 113.986 37.906 114.418 38.638C114.862 39.37 115.084 40.222 115.084 41.194C115.084 42.142 114.862 42.988 114.418 43.732C113.986 44.476 113.38 45.064 112.6 45.496C111.832 45.916 110.95 46.126 109.954 46.126ZM109.954 44.2C110.506 44.2 110.998 44.08 111.43 43.84C111.862 43.6 112.198 43.252 112.438 42.796C112.69 42.34 112.816 41.806 112.816 41.194C112.816 40.57 112.69 40.036 112.438 39.592C112.198 39.136 111.862 38.788 111.43 38.548C110.998 38.308 110.512 38.188 109.972 38.188C109.42 38.188 108.928 38.308 108.496 38.548C108.076 38.788 107.74 39.136 107.488 39.592C107.236 40.036 107.11 40.57 107.11 41.194C107.11 41.806 107.236 42.34 107.488 42.796C107.74 43.252 108.076 43.6 108.496 43.84C108.928 44.08 109.414 44.2 109.954 44.2ZM124.201 46L120.727 41.392L122.563 40.258L126.847 46H124.201ZM117.307 46V36.388H119.557V46H117.307ZM118.891 42.148V40.276H122.149V42.148H118.891ZM122.779 41.464L120.673 41.212L124.201 36.388H126.613L122.779 41.464Z" fill="white"/>
<defs>
<filter id="filter0_d_25_38" x="0" y="0" width="208" height="68" filterUnits="userSpaceOnUse" color-interpolation-filters="sRGB">
<feFlood flood-opacity="0" result="BackgroundImageFix"/>
<feColorMatrix in="SourceAlpha" type="matrix" values="0 0 0 0 0 0 0 0 0 0 0 0 0 0 0 0 0 0 127 0" result="hardAlpha"/>
<feOffset dy="4"/>
<feGaussianBlur stdDeviation="2"/>
<feComposite in2="hardAlpha" operator="out"/>
<feColorMatrix type="matrix" values="0 0 0 0 0 0 0 0 0 0 0 0 0 0 0 0 0 0 0.25 0"/>
<feBlend mode="normal" in2="BackgroundImageFix" result="effect1_dropShadow_25_38"/>
<feBlend mode="normal" in="SourceGraphic" in2="effect1_dropShadow_25_38" result="shape"/>
</filter>
</defs>
</svg>
